<svg version="1.1" id="Layer_1" xmlns="http://www.w3.org/2000/svg" xmlns:xlink="http://www.w3.org/1999/xlink" x="0px" y="0px"
	 width="100%" viewBox="0 0 800 958" enable-background="new 0 0 800 958" xml:space="preserve">
<path fill="#000001" opacity="1.000000" stroke="none" 
	d="
M1.000000,266.000000 
	C1.000000,177.333328 1.000000,89.166664 1.000000,1.000000 
	C267.666656,1.000000 534.333313,1.000000 801.000000,1.000000 
	C801.000000,320.333344 801.000000,639.666687 801.000000,959.000000 
	C534.333313,959.000000 267.666656,959.000000 1.000000,959.000000 
	C1.000000,728.166687 1.000000,497.333344 1.000000,266.000000 
M5.875132,46.499973 
	C6.174740,176.965637 6.405534,307.431519 6.816462,437.896851 
	C6.937601,476.357117 11.745919,514.338684 20.555777,551.751038 
	C47.080078,664.390503 103.350143,759.578918 189.385895,836.925903 
	C249.773071,891.214600 319.256348,929.571838 397.024658,952.886536 
	C399.244202,953.552002 402.003784,953.621094 404.208221,952.958740 
	C508.474121,921.628052 596.227722,864.715576 666.340149,781.459229 
	C753.543884,677.907410 795.287292,557.375977 795.971313,422.610809 
	C796.665771,285.787537 796.124817,148.957977 796.124817,12.131159 
	C796.124817,10.195905 796.124756,8.260652 796.124756,6.235716 
	C532.392212,6.235716 269.347229,6.235716 5.875110,6.235716 
	C5.875110,19.562065 5.875110,32.531017 5.875132,46.499973 
z"/>
<path fill="#0071BB" opacity="1.000000" stroke="none" 
	d="
M5.875121,45.999969 
	C5.875110,32.531017 5.875110,19.562065 5.875110,6.235716 
	C269.347229,6.235716 532.392212,6.235716 796.124756,6.235716 
	C796.124756,8.260652 796.124817,10.195905 796.124817,12.131159 
	C796.124817,148.957977 796.665771,285.787537 795.971313,422.610809 
	C795.287292,557.375977 753.543884,677.907410 666.340149,781.459229 
	C596.227722,864.715576 508.474121,921.628052 404.208221,952.958740 
	C402.003784,953.621094 399.244202,953.552002 397.024658,952.886536 
	C319.256348,929.571838 249.773071,891.214600 189.385895,836.925903 
	C103.350143,759.578918 47.080078,664.390503 20.555777,551.751038 
	C11.745919,514.338684 6.937601,476.357117 6.816462,437.896851 
	C6.405534,307.431519 6.174740,176.965637 5.875121,45.999969 
M262.574615,797.003174 
	C295.138580,789.780090 328.006256,784.703430 361.324615,782.573425 
	C398.844788,780.174805 436.329529,780.614136 473.552917,785.790344 
	C498.747894,789.293884 523.697388,794.571472 548.744263,799.123840 
	C554.132629,800.103149 554.504883,799.978516 554.093750,794.385193 
	C553.348999,784.251770 552.487244,774.126587 551.623169,764.002319 
	C548.761902,730.476929 545.872925,696.953796 543.004089,663.429016 
	C540.206177,630.733276 537.427368,598.035889 534.626465,565.340454 
	C531.427490,527.998535 528.211487,490.658051 525.006409,453.316650 
	C522.157410,420.124176 519.307556,386.931793 516.468384,353.738464 
	C513.643433,320.711060 510.751007,287.688934 508.138977,254.644669 
	C507.880737,251.377960 508.748932,247.682465 510.150208,244.678497 
	C520.635315,222.200302 531.418457,199.861267 542.002930,177.428925 
	C543.035156,175.241302 543.909851,172.720688 543.921814,170.349915 
	C544.056091,143.853439 543.963013,117.355881 544.065979,90.859131 
	C544.077698,87.856117 543.090393,86.202477 540.232239,85.418732 
	C530.930786,82.868156 521.677063,80.139671 512.351440,77.682938 
	C506.400116,76.115150 506.044708,76.502281 506.032593,82.593033 
	C506.012787,92.563881 506.027222,102.534798 506.027222,112.876419 
	C499.123169,111.847710 492.762177,110.713158 486.353333,110.021851 
	C483.028442,109.663216 481.852661,108.463501 481.928589,105.042038 
	C482.143036,95.381187 481.958893,85.712143 482.030182,76.047050 
	C482.049347,73.447403 481.690338,71.474205 478.553375,71.069595 
	C468.480896,69.770439 458.417938,68.395302 448.359467,66.991005 
	C444.996887,66.521553 443.940094,68.007126 443.980042,71.207451 
	C444.094360,80.371689 444.018250,89.538292 444.017059,98.703972 
	C444.016846,100.450409 444.017029,102.196838 444.017029,104.313087 
	C435.585541,103.643723 428.003082,103.041756 419.988129,102.405464 
	C419.988129,91.179939 419.838318,80.376587 420.066589,69.581223 
	C420.150360,65.618774 418.665741,64.191689 414.884155,64.222870 
	C406.388000,64.292931 397.888824,64.079163 389.393951,64.198387 
	C382.013641,64.301971 382.012909,64.434013 382.011078,71.799324 
	C382.008575,81.905052 382.010468,92.010773 382.010468,102.473457 
	C373.718597,103.074257 366.051849,103.629761 357.981934,104.214485 
	C357.981934,92.943314 357.795044,82.461899 358.069733,71.992599 
	C358.187103,67.517914 356.431305,66.465408 352.425507,67.071579 
	C343.371429,68.441673 334.315033,69.860001 325.213531,70.823776 
	C321.181946,71.250687 319.835052,72.743652 319.923859,76.773209 
	C320.158447,87.418358 320.003326,98.072098 320.003326,109.219139 
	C311.962585,110.454117 304.198608,111.646584 295.970490,112.910339 
	C295.970490,101.994637 295.865723,91.681343 296.023438,81.372063 
	C296.084229,77.396858 294.511414,76.259254 290.862701,77.277901 
	C281.570862,79.872017 272.294861,82.528862 262.961639,84.965897 
	C259.077148,85.980194 257.868134,88.043488 257.898560,92.088501 
	C258.091583,117.750954 257.941528,143.415863 258.077393,169.079056 
	C258.091766,171.790131 258.763428,174.713333 259.916199,177.169144 
	C270.526520,199.772934 281.396149,222.255341 291.940094,244.889587 
	C293.336304,247.886749 294.109070,251.597107 293.853790,254.874619 
	C291.603149,283.770111 289.062775,312.643158 286.591614,341.521393 
	C283.396179,378.863647 280.179565,416.204071 276.983368,453.546265 
	C274.170685,486.407684 271.381989,519.271179 268.567261,552.132385 
	C265.724121,585.325317 262.858612,618.516235 260.009186,651.708618 
	C257.145508,685.066833 254.278214,718.424744 251.435532,751.784729 
	C250.205093,766.224426 249.066620,780.671997 247.809982,795.109314 
	C247.489410,798.792358 248.341934,800.612305 252.512360,799.301270 
	C255.519638,798.355835 258.663483,797.844910 262.574615,797.003174 
z"/>
<path fill="#0D0C02" opacity="1.000000" stroke="none" 
	d="
M262.160522,797.071655 
	C258.663483,797.844910 255.519638,798.355835 252.512360,799.301270 
	C248.341934,800.612305 247.489410,798.792358 247.809982,795.109314 
	C249.066620,780.671997 250.205093,766.224426 251.435532,751.784729 
	C254.278214,718.424744 257.145508,685.066833 260.009186,651.708618 
	C262.858612,618.516235 265.724121,585.325317 268.567261,552.132385 
	C271.381989,519.271179 274.170685,486.407684 276.983368,453.546265 
	C280.179565,416.204071 283.396179,378.863647 286.591614,341.521393 
	C289.062775,312.643158 291.603149,283.770111 293.853790,254.874619 
	C294.109070,251.597107 293.336304,247.886749 291.940094,244.889587 
	C281.396149,222.255341 270.526520,199.772934 259.916199,177.169144 
	C258.763428,174.713333 258.091766,171.790131 258.077393,169.079056 
	C257.941528,143.415863 258.091583,117.750954 257.898560,92.088501 
	C257.868134,88.043488 259.077148,85.980194 262.961639,84.965897 
	C272.294861,82.528862 281.570862,79.872017 290.862701,77.277901 
	C294.511414,76.259254 296.084229,77.396858 296.023438,81.372063 
	C295.865723,91.681343 295.970490,101.994637 295.970490,112.910339 
	C304.198608,111.646584 311.962585,110.454117 320.003326,109.219139 
	C320.003326,98.072098 320.158447,87.418358 319.923859,76.773209 
	C319.835052,72.743652 321.181946,71.250687 325.213531,70.823776 
	C334.315033,69.860001 343.371429,68.441673 352.425507,67.071579 
	C356.431305,66.465408 358.187103,67.517914 358.069733,71.992599 
	C357.795044,82.461899 357.981934,92.943314 357.981934,104.214485 
	C366.051849,103.629761 373.718597,103.074257 382.010468,102.473457 
	C382.010468,92.010773 382.008575,81.905052 382.011078,71.799324 
	C382.012909,64.434013 382.013641,64.301971 389.393951,64.198387 
	C397.888824,64.079163 406.388000,64.292931 414.884155,64.222870 
	C418.665741,64.191689 420.150360,65.618774 420.066589,69.581223 
	C419.838318,80.376587 419.988129,91.179939 419.988129,102.405464 
	C428.003082,103.041756 435.585541,103.643723 444.017029,104.313087 
	C444.017029,102.196838 444.016846,100.450409 444.017059,98.703972 
	C444.018250,89.538292 444.094360,80.371689 443.980042,71.207451 
	C443.940094,68.007126 444.996887,66.521553 448.359467,66.991005 
	C458.417938,68.395302 468.480896,69.770439 478.553375,71.069595 
	C481.690338,71.474205 482.049347,73.447403 482.030182,76.047050 
	C481.958893,85.712143 482.143036,95.381187 481.928589,105.042038 
	C481.852661,108.463501 483.028442,109.663216 486.353333,110.021851 
	C492.762177,110.713158 499.123169,111.847710 506.027222,112.876419 
	C506.027222,102.534798 506.012787,92.563881 506.032593,82.593033 
	C506.044708,76.502281 506.400116,76.115150 512.351440,77.682938 
	C521.677063,80.139671 530.930786,82.868156 540.232239,85.418732 
	C543.090393,86.202477 544.077698,87.856117 544.065979,90.859131 
	C543.963013,117.355881 544.056091,143.853439 543.921814,170.349915 
	C543.909851,172.720688 543.035156,175.241302 542.002930,177.428925 
	C531.418457,199.861267 520.635315,222.200302 510.150208,244.678497 
	C508.748932,247.682465 507.880737,251.377960 508.138977,254.644669 
	C510.751007,287.688934 513.643433,320.711060 516.468384,353.738464 
	C519.307556,386.931793 522.157410,420.124176 525.006409,453.316650 
	C528.211487,490.658051 531.427490,527.998535 534.626465,565.340454 
	C537.427368,598.035889 540.206177,630.733276 543.004089,663.429016 
	C545.872925,696.953796 548.761902,730.476929 551.623169,764.002319 
	C552.487244,774.126587 553.348999,784.251770 554.093750,794.385193 
	C554.504883,799.978516 554.132629,800.103149 548.744263,799.123840 
	C523.697388,794.571472 498.747894,789.293884 473.552917,785.790344 
	C436.329529,780.614136 398.844788,780.174805 361.324615,782.573425 
	C328.006256,784.703430 295.138580,789.780090 262.160522,797.071655 
M340.766876,340.684113 
	C340.500854,344.821472 340.027863,348.957703 340.005280,353.096405 
	C339.916229,369.401672 339.930695,385.707855 339.981140,402.013458 
	C340.019165,414.300140 338.650635,412.971527 350.855835,413.015533 
	C364.002319,413.062958 364.355621,413.014740 363.920532,399.796478 
	C363.249969,379.425323 366.165924,358.939331 362.645233,339.096497 
	C363.670990,342.866028 365.327209,346.592834 365.585968,350.414307 
	C366.063873,357.473114 365.722565,364.587341 365.722565,370.840210 
	C376.453033,370.840210 386.419525,370.923218 396.380249,370.720825 
	C397.460297,370.698853 399.417236,369.040527 399.431702,368.117218 
	C399.633972,355.201660 399.568909,342.281952 399.568909,327.945709 
	C372.322937,329.933380 345.749908,331.871948 319.091187,333.816772 
	C318.127716,348.917999 317.252777,362.631683 316.349060,376.796509 
	C323.850342,375.863953 330.823578,374.997070 337.986359,374.106598 
	C337.986359,365.423096 337.741364,357.271118 338.110046,349.146942 
	C338.252441,346.008545 339.787018,342.933319 340.766876,340.684113 
M440.609131,339.534546 
	C439.772064,342.568451 438.244232,345.594482 438.209686,348.637482 
	C437.980774,368.781311 438.081360,388.928772 438.049072,409.075043 
	C438.044739,411.775482 439.283569,413.035889 441.987793,413.017487 
	C446.815979,412.984650 451.665466,412.746765 456.467438,413.107788 
	C461.464203,413.483429 463.182495,411.750885 463.070953,406.632324 
	C462.592682,384.684265 462.466125,362.728485 462.801147,341.309296 
	C463.313049,344.226532 464.172363,347.132507 464.267029,350.063232 
	C464.487396,356.882629 464.235901,363.716919 464.430420,370.537872 
	C464.467987,371.854034 465.500763,374.132935 466.357361,374.276215 
	C472.654755,375.329498 479.024048,375.952820 485.681458,376.748688 
	C484.743530,362.368347 483.848267,348.641998 482.935364,334.645721 
	C456.019226,331.135223 429.465607,328.750061 402.415161,328.969360 
	C402.415161,342.286926 402.349701,354.932678 402.530396,367.574890 
	C402.546082,368.672363 404.165466,370.670990 405.073181,370.690308 
	C415.496399,370.912109 425.926025,370.831635 436.837769,370.831635 
	C436.837769,363.759857 436.465912,356.109070 437.009399,348.523865 
	C437.247345,345.202606 439.355438,342.015381 440.609131,339.534546 
M367.528931,107.945358 
	C365.041870,108.178101 362.549408,108.364311 360.068817,108.652802 
	C353.993683,109.359344 353.737000,109.167717 353.712646,103.235535 
	C353.694183,98.736336 353.708679,94.237000 353.708618,89.737724 
	C353.708557,83.814293 353.708588,77.890869 353.708588,71.274879 
	C343.423065,72.692291 333.970245,73.994949 324.266479,75.332191 
	C324.266479,86.611938 324.070923,97.262619 324.365356,107.899734 
	C324.478851,111.999641 322.972534,113.437309 319.137482,113.900406 
	C311.538544,114.817993 303.951996,115.926247 296.423706,117.302353 
	C292.801178,117.964523 291.557007,116.973648 291.646606,113.336266 
	C291.810760,106.674751 291.691193,100.006241 291.690338,93.340652 
	C291.689850,89.604645 291.690247,85.868637 291.690247,81.293793 
	C282.692383,83.783875 274.725555,86.084465 266.701599,88.164604 
	C263.225006,89.065880 262.138733,90.873886 262.166046,94.519180 
	C262.345917,118.513977 262.253418,142.510773 262.273499,166.506897 
	C262.274658,167.909958 262.483093,169.312836 262.701569,172.050400 
	C355.086670,148.841446 447.168823,148.965469 539.743591,172.063065 
	C539.743591,168.785538 539.743591,167.007324 539.743591,165.229111 
	C539.743652,145.398972 539.787842,125.568657 539.714050,105.738792 
	C539.694397,100.470787 541.241516,93.633400 538.576538,90.360382 
	C535.672180,86.793297 528.745300,86.402588 523.500793,84.870979 
	C519.316040,83.648865 515.024353,82.792740 510.305298,81.660187 
	C510.305298,92.982773 510.269226,103.295197 510.328674,113.607079 
	C510.345123,116.459633 509.715240,118.002800 506.298584,117.413300 
	C498.098083,115.998413 489.864594,114.748283 481.613800,113.664696 
	C478.353149,113.236465 477.645813,111.576691 477.689117,108.630203 
	C477.821350,99.633606 477.736481,90.633812 477.736115,81.635262 
	C477.736023,79.552155 477.736084,77.469048 477.736084,75.207100 
	C467.593109,73.883392 458.244324,72.663330 448.291229,71.364403 
	C448.291229,82.237816 448.296783,92.369743 448.289337,102.501663 
	C448.284241,109.431107 448.288116,109.318306 441.171387,108.562866 
	C434.879456,107.894981 428.562531,107.422943 422.246155,107.035339 
	C415.735474,106.635811 415.722931,106.726158 415.718994,100.124191 
	C415.712891,89.830673 415.717346,79.537163 415.717346,68.882393 
	C405.661255,68.882393 396.150177,68.882393 386.281433,68.882393 
	C386.281433,80.181618 386.107697,90.827278 386.367584,101.462326 
	C386.470428,105.670586 384.918365,107.039589 380.910370,107.030121 
	C376.758209,107.020309 372.604706,107.573463 367.528931,107.945358 
M420.199188,743.084717 
	C424.842010,743.388306 429.500244,743.546631 434.123413,744.035828 
	C438.876038,744.538818 440.061523,742.393738 440.044647,737.959045 
	C439.912018,703.134949 440.014435,668.309937 439.937225,633.485474 
	C439.919128,625.312622 437.554901,617.692871 433.166412,610.793823 
	C424.241180,596.762756 406.585205,590.531189 389.658417,595.324829 
	C373.494720,599.902344 362.104675,615.443176 362.056641,633.446411 
	C361.963745,668.270813 362.109436,703.096008 361.936554,737.919800 
	C361.912140,742.842224 363.638550,744.212524 368.334808,744.070374 
	C385.301514,743.556946 402.277832,743.361389 420.199188,743.084717 
M527.601196,790.016663 
	C534.866333,791.588501 542.131470,793.160400 549.813354,794.822388 
	C549.092529,785.851624 548.226501,777.266357 547.789429,768.659302 
	C547.587402,764.682434 546.053528,763.022827 542.114258,762.178833 
	C497.727142,752.668945 452.893494,746.868958 407.484833,746.264771 
	C374.474792,745.825500 341.601990,748.276978 308.983124,753.354736 
	C292.227905,755.963013 275.599243,759.399780 258.951111,762.654968 
	C257.386078,762.960999 254.992401,764.521912 254.846909,765.725403 
	C253.693344,775.268860 252.991379,784.867004 252.124420,794.748169 
	C253.201843,794.582153 253.826431,794.526428 254.431641,794.386780 
	C293.918182,785.277405 333.819031,779.251404 374.363373,777.541260 
	C425.691620,775.376221 476.472137,779.492188 527.601196,790.016663 
M302.226501,193.704315 
	C293.244904,195.206726 284.263336,196.709122 274.746918,198.300995 
	C276.860107,202.766998 278.758057,206.792801 280.668945,210.812439 
	C282.581757,214.836136 284.507507,218.853683 286.786011,223.624481 
	C362.971710,206.329010 439.138855,206.427551 515.243896,223.616333 
	C519.498474,214.686356 523.318726,206.667892 527.459351,197.977051 
	C505.967072,194.704956 485.298187,191.206894 464.527466,188.485733 
	C439.102448,185.154816 413.539490,181.791794 387.876343,184.026627 
	C359.549591,186.493393 331.338104,190.283768 302.226501,193.704315 
M438.012329,182.606155 
	C449.423859,183.924500 460.875732,184.966339 472.237488,186.625610 
	C489.525665,189.150406 506.743866,192.152069 524.015381,194.797165 
	C525.717041,195.057785 528.655579,194.832260 529.197998,193.838196 
	C532.654785,187.502930 535.600403,180.888733 538.512512,174.789200 
	C446.652771,151.865540 355.187927,151.881622 263.557098,174.827591 
	C265.982971,179.984268 268.820282,185.427856 271.108978,191.093109 
	C272.566833,194.701721 274.546509,195.495224 278.284851,194.919006 
	C304.106079,190.938812 329.915649,186.827972 355.819427,183.453476 
	C382.831024,179.934692 409.971283,179.643112 438.012329,182.606155 
M399.582611,537.473999 
	C399.567139,529.192627 400.041870,530.265015 392.256317,530.518677 
	C380.944153,530.887329 369.609558,531.182373 358.342255,532.168640 
	C340.981445,533.688232 323.669556,535.766968 306.008209,537.643433 
	C304.835236,556.362061 303.709198,574.331787 302.625549,591.625061 
	C335.299866,588.835632 367.199280,586.112366 399.582672,583.347778 
	C399.582672,568.737488 399.582672,553.611267 399.582611,537.473999 
M417.503723,584.931946 
	C444.632935,587.108459 471.762115,589.285034 499.396179,591.502075 
	C498.294556,574.160645 497.159180,556.287415 496.018463,538.330444 
	C495.035248,538.121765 494.418854,537.959778 493.792389,537.862549 
	C464.799133,533.363953 435.628571,530.976807 406.299194,530.328613 
	C402.585693,530.246521 402.368378,532.087158 402.383392,534.929932 
	C402.459869,549.418579 402.417938,563.907837 402.417480,578.396912 
	C402.417419,580.332214 402.417480,582.267578 402.417480,583.870361 
	C403.430511,584.339417 403.724854,584.589417 404.026154,584.598145 
	C408.186707,584.718262 412.348206,584.805115 417.503723,584.931946 
M399.512695,213.023895 
	C362.009491,213.760483 325.077850,219.322357 287.765747,225.669693 
	C290.753906,231.999985 293.693085,237.594254 296.037689,243.427521 
	C297.473816,247.000565 299.572968,247.464523 302.960693,246.954865 
	C317.937439,244.701706 332.932465,242.560974 347.942596,240.541016 
	C383.309204,235.781586 418.693207,235.784546 454.059692,240.541992 
	C469.069977,242.561157 484.047211,244.826157 499.059418,246.830032 
	C500.819153,247.064926 503.818512,246.954056 504.353943,245.972687 
	C507.889648,239.492447 510.908203,232.730103 514.321106,225.587021 
	C476.059174,219.276733 438.583344,213.479263 399.512695,213.023895 
M311.874603,447.415680 
	C311.034241,460.261566 310.193909,473.107422 309.380157,485.546936 
	C339.804077,483.125092 369.548859,480.757324 399.146240,478.401306 
	C399.146240,460.494202 399.146240,442.462860 399.146240,424.086945 
	C369.978821,424.453186 341.425873,426.590912 312.870056,430.939728 
	C312.528778,436.525024 312.225037,441.496155 311.874603,447.415680 
M431.274048,480.280426 
	C451.584290,482.127991 471.894562,483.975555 492.647552,485.863403 
	C491.472839,467.516296 490.308350,449.328583 489.124573,430.839722 
	C460.262177,426.727631 431.701202,424.292877 402.720337,424.134857 
	C402.720337,442.715393 402.720337,460.766022 402.720337,480.216187 
	C412.108459,480.216187 421.213837,480.216187 431.274048,480.280426 
M424.446411,482.959930 
	C399.359192,481.546112 374.353729,482.546448 349.165314,484.913696 
	C348.626251,500.203644 348.107635,514.913940 347.570404,530.152771 
	C383.676208,526.636780 419.138397,526.830505 454.969818,530.074036 
	C454.367035,514.698486 453.789673,499.970764 453.190735,484.692871 
	C443.620941,484.105103 434.523041,483.546326 424.446411,482.959930 
M341.056580,623.490662 
	C341.056580,612.721008 341.056580,601.951416 341.056580,590.942322 
	C340.998627,590.942322 340.350189,590.860413 339.728149,590.954163 
	C317.035889,594.373474 294.350037,597.835632 271.651428,601.212219 
	C268.474915,601.684814 268.358459,603.841003 268.160461,606.260498 
	C267.223572,617.709167 266.196045,629.150452 265.247498,640.598206 
	C264.609863,648.293457 264.050171,655.995117 263.477783,663.406860 
	C289.310638,659.331665 314.537628,655.351990 341.031219,651.172607 
	C341.031219,642.417236 341.031219,633.447815 341.056580,623.490662 
M511.672211,658.937866 
	C520.452637,660.551086 529.233093,662.164307 537.950439,663.765930 
	C538.210205,663.245117 538.494446,662.950073 538.472351,662.680176 
	C536.896973,643.442688 535.244080,624.211365 533.751526,604.967590 
	C533.502869,601.761475 531.560303,601.397217 529.114929,600.993774 
	C513.697998,598.449890 498.314575,595.695557 482.876160,593.292847 
	C475.431000,592.134033 467.890167,591.589783 460.112000,590.736389 
	C460.906006,611.675476 461.666229,631.723083 462.420532,651.614807 
	C478.924103,654.073181 494.868530,656.448242 511.672211,658.937866 
M423.463104,278.894409 
	C401.380737,278.947632 379.298401,279.000854 356.834412,279.054993 
	C356.186523,296.236694 355.594116,311.948059 355.031921,326.857269 
	C386.035217,326.857269 416.415710,326.857269 447.292480,326.857269 
	C446.735474,311.608002 446.162415,295.919250 445.582794,280.050720 
	C438.069885,279.646393 431.258392,279.279816 423.463104,278.894409 
M448.367950,423.185303 
	C453.784698,421.685486 449.524445,417.993378 450.795868,414.983704 
	C445.880341,414.983704 441.616486,414.983704 436.854584,414.983704 
	C436.854584,401.511353 436.854584,388.445007 436.854584,374.833344 
	C412.874420,373.365753 389.417480,373.262543 365.387939,374.856842 
	C365.387939,388.663055 365.387939,401.708252 365.387939,415.205475 
	C360.555237,415.205475 356.300903,415.205475 352.003693,415.205475 
	C351.868622,416.819244 351.707031,417.970459 351.693359,419.123413 
	C351.678406,420.382050 351.800385,421.642303 351.887970,423.412476 
	C383.974670,420.563263 415.706421,420.581970 448.367950,423.185303 
M274.196747,535.868958 
	C274.196747,537.341370 274.196747,538.813782 274.196747,540.606873 
	C277.375885,540.038635 280.277893,539.430237 283.206970,539.010864 
	C302.475739,536.252319 321.757538,533.582764 341.007477,530.699890 
	C342.361511,530.497192 344.553436,528.834900 344.570374,527.821472 
	C344.806061,513.709473 344.729950,499.592224 344.729950,485.244385 
	C345.024475,485.244385 344.385834,485.167694 343.770599,485.255493 
	C323.344452,488.169952 302.932007,491.185120 282.485779,493.950134 
	C278.781952,494.451019 277.502197,496.022095 277.246552,499.601288 
	C276.404297,511.393188 275.289673,523.165588 274.196747,535.868958 
M323.127106,709.549011 
	C305.567749,712.416504 287.987518,715.163330 270.456360,718.193970 
	C258.825287,720.204651 258.856873,720.386475 257.494995,731.860901 
	C257.455750,732.191589 257.395447,732.520325 257.368530,732.851929 
	C256.635925,741.881287 255.906403,750.910889 255.201736,759.626709 
	C282.556244,755.066528 309.393707,750.592468 337.098999,745.973755 
	C337.098999,733.598572 337.098999,720.862976 337.098999,707.854675 
	C332.897736,708.341492 328.448883,708.857056 323.127106,709.549011 
M471.612823,486.820648 
	C466.579132,486.272034 461.545441,485.723450 456.146851,485.135071 
	C456.750885,500.514862 457.329803,515.255859 457.902283,529.832336 
	C481.423706,533.286499 504.511658,536.677063 528.103394,540.141602 
	C526.835388,525.642151 525.632202,511.266846 524.202942,496.914062 
	C524.106628,495.946289 522.401733,494.541077 521.281982,494.362823 
	C505.041168,491.777374 488.772491,489.366974 471.612823,486.820648 
M471.092316,747.503967 
	C496.267944,751.434326 521.443604,755.364624 546.798950,759.323059 
	C545.818237,747.439453 544.930298,735.357849 543.663147,723.316162 
	C543.532410,722.073853 541.274719,720.344666 539.775757,720.065063 
	C521.322327,716.623535 502.842682,713.313477 484.332550,710.190247 
	C477.896942,709.104370 471.358673,708.626770 465.524231,707.947876 
	C465.524231,721.371948 465.524231,733.969116 465.524231,746.703491 
	C467.639771,746.994202 468.922180,747.170410 471.092316,747.503967 
M449.683167,653.853882 
	C447.580139,653.660645 445.477142,653.467468 443.196899,653.257935 
	C443.196899,669.978271 443.196899,686.348877 443.196899,702.402527 
	C464.594147,705.005676 485.616577,707.563293 507.042358,710.169922 
	C506.007996,694.163757 505.036407,678.411133 503.856720,662.674072 
	C503.786743,661.740417 502.128204,660.297424 501.070160,660.160034 
	C484.253693,657.976440 467.414581,655.967468 449.683167,653.853882 
M359.118103,700.277466 
	C359.118103,684.671875 359.118103,669.066223 359.118103,652.743652 
	C338.428802,655.266479 318.371918,657.712219 298.190521,660.173157 
	C297.080109,677.353577 296.021484,693.733032 294.947906,710.343628 
	C296.073486,710.293945 296.702942,710.307678 297.321625,710.232788 
	C317.126038,707.836060 336.931732,705.449219 356.725037,702.963745 
	C357.574585,702.857117 358.308380,701.828491 359.118103,700.277466 
M353.429810,290.753784 
	C353.429810,287.472839 353.429810,284.191895 353.429810,280.013153 
	C338.250183,281.925995 323.277374,283.765137 308.320923,285.728699 
	C304.226593,286.266266 298.845856,285.874298 296.492493,288.286469 
	C294.182037,290.654724 294.798248,296.031281 294.432465,300.114746 
	C293.382263,311.839600 292.485077,323.578186 291.514984,335.467834 
	C311.966583,332.825256 331.830505,330.258606 352.053192,327.645569 
	C352.494354,315.616547 352.932800,303.661285 353.429810,290.753784 
M474.033875,330.624664 
	C485.996460,332.260040 497.959045,333.895416 509.865234,335.523102 
	C510.078613,334.942291 510.308533,334.628540 510.285431,334.334717 
	C509.137177,319.726837 508.055542,305.112122 506.644043,290.529388 
	C506.521576,289.263733 504.342102,287.438110 502.889130,287.184540 
	C494.040588,285.640350 485.144135,284.326935 476.227844,283.226868 
	C467.226471,282.116272 458.183502,281.342896 448.580627,280.362762 
	C449.173340,296.739227 449.735962,312.284210 450.304565,327.994110 
	C458.269165,328.856018 465.707947,329.661011 474.033875,330.624664 
M376.630035,588.054016 
	C366.230652,588.786377 355.831299,589.518738 345.282104,590.261597 
	C344.501160,611.053650 343.746277,631.152771 342.978760,651.587341 
	C348.533386,651.132080 353.611023,650.715881 359.150757,650.261780 
	C359.150757,643.924805 359.005737,637.951355 359.175568,631.986877 
	C359.968201,604.145325 385.371979,584.966125 412.007874,592.029785 
	C430.114532,596.831421 442.435944,613.081238 442.826965,632.792969 
	C442.941162,638.549438 442.844543,644.310059 442.844543,650.304443 
	C448.630096,650.749817 453.706451,651.140625 459.439972,651.581970 
	C458.674438,630.914734 457.926544,610.722534 457.175659,590.450317 
	C430.193542,587.598267 403.921967,587.053223 376.630035,588.054016 
M323.653687,263.185669 
	C323.319489,268.892487 322.985291,274.599304 322.674286,279.910095 
	C348.654572,278.112549 373.829559,276.370728 399.216644,274.614258 
	C399.216644,263.265747 399.216644,251.753555 399.216644,240.214157 
	C398.382355,240.073074 397.896454,239.886429 397.430359,239.927048 
	C374.076294,241.961731 350.720215,243.977371 327.383148,246.192642 
	C326.326721,246.292923 324.756897,248.126617 324.602417,249.306885 
	C324.042297,253.586166 323.983948,257.931122 323.653687,263.185669 
M402.413666,264.500488 
	C402.413666,267.943848 402.413666,271.387238 402.413666,274.582977 
	C428.309784,276.380035 453.584991,278.134003 479.406586,279.925903 
	C478.754639,269.554749 478.202698,259.131226 477.284210,248.740112 
	C477.193726,247.716385 474.938812,246.252289 473.549103,246.073013 
	C460.027679,244.328796 446.498444,242.579971 432.926544,241.313309 
	C422.902557,240.377777 412.811920,240.156433 402.413635,239.598801 
	C402.413635,248.205078 402.413635,255.851547 402.413666,264.500488 
M348.730591,420.102478 
	C348.730591,418.511749 348.730591,416.920990 348.730591,414.791809 
	C344.894775,414.791809 341.505524,414.791809 337.844025,414.791809 
	C337.844025,401.953766 337.844025,389.662323 337.844025,376.746368 
	C321.527496,379.206696 305.582977,381.544769 289.683136,384.155304 
	C288.607758,384.331879 287.222229,386.491577 287.077148,387.846375 
	C285.960846,398.270294 285.089050,408.720978 284.199005,419.168243 
	C283.826965,423.535339 283.594849,427.914368 283.319214,431.990723 
	C304.497650,429.270111 325.113525,426.662048 345.703857,423.865631 
	C346.809052,423.715515 347.699188,421.982361 348.730591,420.102478 
M518.111938,424.354218 
	C517.078735,412.090240 516.139954,399.816559 514.877075,387.576263 
	C514.739685,386.244598 512.916931,384.347321 511.557190,384.014404 
	C506.728088,382.832153 501.777252,382.097229 496.842682,381.405914 
	C486.231659,379.919342 475.602051,378.565247 464.375275,377.076721 
	C464.375275,390.154297 464.375275,402.407379 464.375275,415.086060 
	C460.596985,415.086060 457.329803,415.086060 453.668549,415.086060 
	C453.826416,418.262665 453.961334,420.977173 454.076447,423.293335 
	C475.981140,426.292236 497.261200,429.205597 518.888733,432.166565 
	C518.616638,429.511566 518.398560,427.383698 518.111938,424.354218 
M272.852142,553.395447 
	C271.531555,568.431274 270.210999,583.467102 268.869354,598.742798 
	C278.049957,597.093994 286.653564,595.343811 295.329376,594.094971 
	C298.652405,593.616577 299.760406,592.425354 299.937927,589.122559 
	C300.758942,573.850037 301.837006,558.591370 302.798920,543.326233 
	C302.889008,541.896667 302.810974,540.456482 302.810974,538.612732 
	C295.423096,539.856445 288.540314,540.943176 281.686157,542.187561 
	C273.359406,543.699280 273.369843,543.756836 272.852142,553.395447 
M530.357727,567.205444 
	C529.845825,560.744690 529.454102,554.270508 528.734741,547.832947 
	C528.562195,546.289001 527.530823,543.776367 526.503601,543.559387 
	C517.528381,541.663208 508.464325,540.187378 498.994293,538.510254 
	C500.111725,556.528625 501.116211,573.596069 502.351105,590.646790 
	C502.431946,591.762451 504.139160,593.451782 505.324677,593.685974 
	C514.385071,595.476257 523.503784,596.971436 533.073914,598.640259 
	C532.193420,588.264954 531.338623,578.192871 530.357727,567.205444 
M259.088593,712.727295 
	C259.088593,714.196106 259.088593,715.664917 259.088593,717.468506 
	C270.152161,715.328369 280.883240,713.252563 291.953308,711.111145 
	C293.023285,694.436401 294.083557,677.913147 295.174377,660.913635 
	C284.002106,663.057434 273.600494,665.053345 263.109711,667.066406 
	C261.760620,682.301331 260.454407,697.052551 259.088593,712.727295 
M517.962402,712.629883 
	C526.196045,714.200928 534.429626,715.771912 543.266052,717.458008 
	C541.771484,700.182922 540.341614,683.656189 538.900024,666.993469 
	C528.121704,664.954468 517.751770,662.992737 506.795197,660.920044 
	C507.907288,678.048889 508.972870,694.461304 510.050995,711.066833 
	C512.585754,711.549072 514.857666,711.981262 517.962402,712.629883 
M278.558258,485.940704 
	C278.403595,487.837708 278.248962,489.734711 278.085175,491.743927 
	C286.590088,490.356842 294.435120,488.995087 302.309998,487.836243 
	C305.190094,487.412445 306.541443,486.319489 306.716034,483.170349 
	C307.635773,466.577972 308.778412,449.997955 309.813263,433.411774 
	C309.850830,432.809387 309.571106,432.187256 309.371857,431.261047 
	C302.001709,432.507782 294.841644,434.015808 287.603455,434.822021 
	C283.805847,435.245026 282.611938,436.791168 282.347137,440.350647 
	C281.237640,455.263031 279.918060,470.159760 278.558258,485.940704 
M494.127075,464.209930 
	C494.642120,471.660065 495.157135,479.110199 495.696960,486.918762 
	C505.130798,488.532715 514.332520,490.106964 523.931580,491.749207 
	C523.577881,487.525024 523.278198,483.898804 522.970093,480.273315 
	C521.828735,466.840698 520.758362,453.401093 519.445984,439.985168 
	C519.285828,438.348480 518.058228,435.691986 516.920532,435.455505 
	C508.870209,433.782227 500.714172,432.617401 492.122620,431.213776 
	C492.807068,442.401031 493.445496,452.836090 494.127075,464.209930 
M511.264130,344.343109 
	C511.105011,342.570587 510.945892,340.798035 510.770264,338.841553 
	C502.436096,337.552094 494.458405,336.317780 485.944580,335.000519 
	C486.791260,348.557434 487.576508,361.626526 488.487457,374.686829 
	C488.553650,375.635712 489.411316,377.207764 490.106140,377.330719 
	C498.009674,378.729309 505.953125,379.902069 514.473999,381.226624 
	C513.392029,368.684540 512.380615,356.960052 511.264130,344.343109 
M290.939575,341.690491 
	C289.820099,354.700928 288.700623,367.711395 287.537354,381.231018 
	C296.003052,379.933807 303.699554,378.877716 311.322632,377.433807 
	C312.299805,377.248749 313.431122,375.103455 313.573151,373.768616 
	C314.152771,368.320923 314.399872,362.836761 314.724243,357.363312 
	C315.160492,350.002045 315.555054,342.638275 315.983643,334.987518 
	C308.367645,336.175934 301.465912,337.153809 294.614899,338.408691 
	C293.306061,338.648438 292.197327,339.980530 290.939575,341.690491 
M481.807373,269.691559 
	C482.002686,273.322693 482.198029,276.953796 482.415863,281.003937 
	C490.270386,282.175964 497.900330,283.314453 506.205444,284.553711 
	C505.250854,273.455536 504.387909,262.906921 503.351379,252.375397 
	C503.270599,251.554459 502.066559,250.324875 501.229370,250.179535 
	C494.424500,248.998444 487.582611,248.030731 480.267822,246.924820 
	C480.785645,254.596558 481.263489,261.675598 481.807373,269.691559 
M316.774933,281.477478 
	C317.767426,280.614166 318.989410,279.898651 319.673187,278.836609 
	C320.143158,278.106598 319.864227,276.895569 319.923431,275.899780 
	C320.490631,266.359650 321.058533,256.819519 321.646973,246.930649 
	C314.322296,248.045013 307.576355,248.902969 300.929352,250.249481 
	C299.830505,250.472076 298.583923,252.760010 298.401733,254.217972 
	C297.701752,259.819458 297.407562,265.471649 296.961090,271.104858 
	C296.615295,275.468048 296.268066,279.831146 295.896545,284.508026 
	C303.109222,283.480652 309.518127,282.567780 316.774933,281.477478 
M461.422852,708.273926 
	C455.365875,707.351868 449.308868,706.429871 443.114258,705.486877 
	C443.114258,719.255432 443.114258,731.851318 443.114258,744.745422 
	C449.730438,745.320129 456.110718,745.874390 461.658234,746.356262 
	C461.658234,733.709839 461.658234,721.428345 461.422852,708.273926 
M344.305023,746.034729 
	C349.199463,745.574890 354.093903,745.115051 358.886597,744.664734 
	C358.886597,731.550049 358.886597,718.973206 358.886597,705.814941 
	C352.778839,706.371521 346.962952,706.901489 340.936310,707.450684 
	C340.492645,719.798950 340.145935,731.580811 339.596558,743.353271 
	C339.445221,746.596619 341.233643,746.371582 344.305023,746.034729 
z"/>
<path fill="#E6BE02" opacity="1.000000" stroke="none" 
	d="
M367.990356,107.912872 
	C372.604706,107.573463 376.758209,107.020309 380.910370,107.030121 
	C384.918365,107.039589 386.470428,105.670586 386.367584,101.462326 
	C386.107697,90.827278 386.281433,80.181618 386.281433,68.882393 
	C396.150177,68.882393 405.661255,68.882393 415.717346,68.882393 
	C415.717346,79.537163 415.712891,89.830673 415.718994,100.124191 
	C415.722931,106.726158 415.735474,106.635811 422.246155,107.035339 
	C428.562531,107.422943 434.879456,107.894981 441.171387,108.562866 
	C448.288116,109.318306 448.284241,109.431107 448.289337,102.501663 
	C448.296783,92.369743 448.291229,82.237816 448.291229,71.364403 
	C458.244324,72.663330 467.593109,73.883392 477.736084,75.207100 
	C477.736084,77.469048 477.736023,79.552155 477.736115,81.635262 
	C477.736481,90.633812 477.821350,99.633606 477.689117,108.630203 
	C477.645813,111.576691 478.353149,113.236465 481.613800,113.664696 
	C489.864594,114.748283 498.098083,115.998413 506.298584,117.413300 
	C509.715240,118.002800 510.345123,116.459633 510.328674,113.607079 
	C510.269226,103.295197 510.305298,92.982773 510.305298,81.660187 
	C515.024353,82.792740 519.316040,83.648865 523.500793,84.870979 
	C528.745300,86.402588 535.672180,86.793297 538.576538,90.360382 
	C541.241516,93.633400 539.694397,100.470787 539.714050,105.738792 
	C539.787842,125.568657 539.743652,145.398972 539.743591,165.229111 
	C539.743591,167.007324 539.743591,168.785538 539.743591,172.063065 
	C447.168823,148.965469 355.086670,148.841446 262.701569,172.050400 
	C262.483093,169.312836 262.274658,167.909958 262.273499,166.506897 
	C262.253418,142.510773 262.345917,118.513977 262.166046,94.519180 
	C262.138733,90.873886 263.225006,89.065880 266.701599,88.164604 
	C274.725555,86.084465 282.692383,83.783875 291.690247,81.293793 
	C291.690247,85.868637 291.689850,89.604645 291.690338,93.340652 
	C291.691193,100.006241 291.810760,106.674751 291.646606,113.336266 
	C291.557007,116.973648 292.801178,117.964523 296.423706,117.302353 
	C303.951996,115.926247 311.538544,114.817993 319.137482,113.900406 
	C322.972534,113.437309 324.478851,111.999641 324.365356,107.899734 
	C324.070923,97.262619 324.266479,86.611938 324.266479,75.332191 
	C333.970245,73.994949 343.423065,72.692291 353.708588,71.274879 
	C353.708588,77.890869 353.708557,83.814293 353.708618,89.737724 
	C353.708679,94.237000 353.694183,98.736336 353.712646,103.235535 
	C353.737000,109.167717 353.993683,109.359344 360.068817,108.652802 
	C362.549408,108.364311 365.041870,108.178101 367.990356,107.912872 
z"/>
<path fill="#1C1B1D" opacity="1.000000" stroke="none" 
	d="
M419.724854,743.065308 
	C402.277832,743.361389 385.301514,743.556946 368.334808,744.070374 
	C363.638550,744.212524 361.912140,742.842224 361.936554,737.919800 
	C362.109436,703.096008 361.963745,668.270813 362.056641,633.446411 
	C362.104675,615.443176 373.494720,599.902344 389.658417,595.324829 
	C406.585205,590.531189 424.241180,596.762756 433.166412,610.793823 
	C437.554901,617.692871 439.919128,625.312622 439.937225,633.485474 
	C440.014435,668.309937 439.912018,703.134949 440.044647,737.959045 
	C440.061523,742.393738 438.876038,744.538818 434.123413,744.035828 
	C429.500244,743.546631 424.842010,743.388306 419.724854,743.065308 
z"/>
<path fill="#E7BE02" opacity="1.000000" stroke="none" 
	d="
M527.180176,789.966675 
	C476.472137,779.492188 425.691620,775.376221 374.363373,777.541260 
	C333.819031,779.251404 293.918182,785.277405 254.431641,794.386780 
	C253.826431,794.526428 253.201843,794.582153 252.124420,794.748169 
	C252.991379,784.867004 253.693344,775.268860 254.846909,765.725403 
	C254.992401,764.521912 257.386078,762.960999 258.951111,762.654968 
	C275.599243,759.399780 292.227905,755.963013 308.983124,753.354736 
	C341.601990,748.276978 374.474792,745.825500 407.484833,746.264771 
	C452.893494,746.868958 497.727142,752.668945 542.114258,762.178833 
	C546.053528,763.022827 547.587402,764.682434 547.789429,768.659302 
	C548.226501,777.266357 549.092529,785.851624 549.813354,794.822388 
	C542.131470,793.160400 534.866333,791.588501 527.180176,789.966675 
z"/>
<path fill="#E7BE02" opacity="1.000000" stroke="none" 
	d="
M302.651459,193.600967 
	C331.338104,190.283768 359.549591,186.493393 387.876343,184.026627 
	C413.539490,181.791794 439.102448,185.154816 464.527466,188.485733 
	C485.298187,191.206894 505.967072,194.704956 527.459351,197.977051 
	C523.318726,206.667892 519.498474,214.686356 515.243896,223.616333 
	C439.138855,206.427551 362.971710,206.329010 286.786011,223.624481 
	C284.507507,218.853683 282.581757,214.836136 280.668945,210.812439 
	C278.758057,206.792801 276.860107,202.766998 274.746918,198.300995 
	C284.263336,196.709122 293.244904,195.206726 302.651459,193.600967 
z"/>
<path fill="#E6BE02" opacity="1.000000" stroke="none" 
	d="
M437.558777,182.531311 
	C409.971283,179.643112 382.831024,179.934692 355.819427,183.453476 
	C329.915649,186.827972 304.106079,190.938812 278.284851,194.919006 
	C274.546509,195.495224 272.566833,194.701721 271.108978,191.093109 
	C268.820282,185.427856 265.982971,179.984268 263.557098,174.827591 
	C355.187927,151.881622 446.652771,151.865540 538.512512,174.789200 
	C535.600403,180.888733 532.654785,187.502930 529.197998,193.838196 
	C528.655579,194.832260 525.717041,195.057785 524.015381,194.797165 
	C506.743866,192.152069 489.525665,189.150406 472.237488,186.625610 
	C460.875732,184.966339 449.423859,183.924500 437.558777,182.531311 
z"/>
<path fill="#E7BE02" opacity="1.000000" stroke="none" 
	d="
M399.582642,537.979553 
	C399.582672,553.611267 399.582672,568.737488 399.582672,583.347778 
	C367.199280,586.112366 335.299866,588.835632 302.625549,591.625061 
	C303.709198,574.331787 304.835236,556.362061 306.008209,537.643433 
	C323.669556,535.766968 340.981445,533.688232 358.342255,532.168640 
	C369.609558,531.182373 380.944153,530.887329 392.256317,530.518677 
	C400.041870,530.265015 399.567139,529.192627 399.582642,537.979553 
z"/>
<path fill="#E7BE02" opacity="1.000000" stroke="none" 
	d="
M417.006592,584.916077 
	C412.348206,584.805115 408.186707,584.718262 404.026154,584.598145 
	C403.724854,584.589417 403.430511,584.339417 402.417480,583.870361 
	C402.417480,582.267578 402.417419,580.332214 402.417480,578.396912 
	C402.417938,563.907837 402.459869,549.418579 402.383392,534.929932 
	C402.368378,532.087158 402.585693,530.246521 406.299194,530.328613 
	C435.628571,530.976807 464.799133,533.363953 493.792389,537.862549 
	C494.418854,537.959778 495.035248,538.121765 496.018463,538.330444 
	C497.159180,556.287415 498.294556,574.160645 499.396179,591.502075 
	C471.762115,589.285034 444.632935,587.108459 417.006592,584.916077 
z"/>
<path fill="#E6BE02" opacity="1.000000" stroke="none" 
	d="
M400.008667,213.023651 
	C438.583344,213.479263 476.059174,219.276733 514.321106,225.587021 
	C510.908203,232.730103 507.889648,239.492447 504.353943,245.972687 
	C503.818512,246.954056 500.819153,247.064926 499.059418,246.830032 
	C484.047211,244.826157 469.069977,242.561157 454.059692,240.541992 
	C418.693207,235.784546 383.309204,235.781586 347.942596,240.541016 
	C332.932465,242.560974 317.937439,244.701706 302.960693,246.954865 
	C299.572968,247.464523 297.473816,247.000565 296.037689,243.427521 
	C293.693085,237.594254 290.753906,231.999985 287.765747,225.669693 
	C325.077850,219.322357 362.009491,213.760483 400.008667,213.023651 
z"/>
<path fill="#E6BE02" opacity="1.000000" stroke="none" 
	d="
M311.897949,446.941467 
	C312.225037,441.496155 312.528778,436.525024 312.870056,430.939728 
	C341.425873,426.590912 369.978821,424.453186 399.146240,424.086945 
	C399.146240,442.462860 399.146240,460.494202 399.146240,478.401306 
	C369.548859,480.757324 339.804077,483.125092 309.380157,485.546936 
	C310.193909,473.107422 311.034241,460.261566 311.897949,446.941467 
z"/>
<path fill="#E6BE02" opacity="1.000000" stroke="none" 
	d="
M430.796631,480.248291 
	C421.213837,480.216187 412.108459,480.216187 402.720337,480.216187 
	C402.720337,460.766022 402.720337,442.715393 402.720337,424.134857 
	C431.701202,424.292877 460.262177,426.727631 489.124573,430.839722 
	C490.308350,449.328583 491.472839,467.516296 492.647552,485.863403 
	C471.894562,483.975555 451.584290,482.127991 430.796631,480.248291 
z"/>
<path fill="#E7BE02" opacity="1.000000" stroke="none" 
	d="
M424.935791,482.973755 
	C434.523041,483.546326 443.620941,484.105103 453.190735,484.692871 
	C453.789673,499.970764 454.367035,514.698486 454.969818,530.074036 
	C419.138397,526.830505 383.676208,526.636780 347.570404,530.152771 
	C348.107635,514.913940 348.626251,500.203644 349.165314,484.913696 
	C374.353729,482.546448 399.359192,481.546112 424.935791,482.973755 
z"/>
<path fill="#E7BF02" opacity="1.000000" stroke="none" 
	d="
M341.043884,623.984558 
	C341.031219,633.447815 341.031219,642.417236 341.031219,651.172607 
	C314.537628,655.351990 289.310638,659.331665 263.477783,663.406860 
	C264.050171,655.995117 264.609863,648.293457 265.247498,640.598206 
	C266.196045,629.150452 267.223572,617.709167 268.160461,606.260498 
	C268.358459,603.841003 268.474915,601.684814 271.651428,601.212219 
	C294.350037,597.835632 317.035889,594.373474 339.728149,590.954163 
	C340.350189,590.860413 340.998627,590.942322 341.056580,590.942322 
	C341.056580,601.951416 341.056580,612.721008 341.043884,623.984558 
z"/>
<path fill="#E7BF02" opacity="1.000000" stroke="none" 
	d="
M511.242584,658.880554 
	C494.868530,656.448242 478.924103,654.073181 462.420532,651.614807 
	C461.666229,631.723083 460.906006,611.675476 460.112000,590.736389 
	C467.890167,591.589783 475.431000,592.134033 482.876160,593.292847 
	C498.314575,595.695557 513.697998,598.449890 529.114929,600.993774 
	C531.560303,601.397217 533.502869,601.761475 533.751526,604.967590 
	C535.244080,624.211365 536.896973,643.442688 538.472351,662.680176 
	C538.494446,662.950073 538.210205,663.245117 537.950439,663.765930 
	C529.233093,662.164307 520.452637,660.551086 511.242584,658.880554 
z"/>
<path fill="#E7BE02" opacity="1.000000" stroke="none" 
	d="
M423.955017,278.903809 
	C431.258392,279.279816 438.069885,279.646393 445.582794,280.050720 
	C446.162415,295.919250 446.735474,311.608002 447.292480,326.857269 
	C416.415710,326.857269 386.035217,326.857269 355.031921,326.857269 
	C355.594116,311.948059 356.186523,296.236694 356.834412,279.054993 
	C379.298401,279.000854 401.380737,278.947632 423.955017,278.903809 
z"/>
<path fill="#E7BF02" opacity="1.000000" stroke="none" 
	d="
M447.899750,423.156860 
	C415.706421,420.581970 383.974670,420.563263 351.887970,423.412476 
	C351.800385,421.642303 351.678406,420.382050 351.693359,419.123413 
	C351.707031,417.970459 351.868622,416.819244 352.003693,415.205475 
	C356.300903,415.205475 360.555237,415.205475 365.387939,415.205475 
	C365.387939,401.708252 365.387939,388.663055 365.387939,374.856842 
	C389.417480,373.262543 412.874420,373.365753 436.854584,374.833344 
	C436.854584,388.445007 436.854584,401.511353 436.854584,414.983704 
	C441.616486,414.983704 445.880341,414.983704 450.795868,414.983704 
	C449.524445,417.993378 453.784698,421.685486 447.899750,423.156860 
z"/>
<path fill="#E7BE02" opacity="1.000000" stroke="none" 
	d="
M274.238190,535.407227 
	C275.289673,523.165588 276.404297,511.393188 277.246552,499.601288 
	C277.502197,496.022095 278.781952,494.451019 282.485779,493.950134 
	C302.932007,491.185120 323.344452,488.169952 343.770599,485.255493 
	C344.385834,485.167694 345.024475,485.244385 344.729950,485.244385 
	C344.729950,499.592224 344.806061,513.709473 344.570374,527.821472 
	C344.553436,528.834900 342.361511,530.497192 341.007477,530.699890 
	C321.757538,533.582764 302.475739,536.252319 283.206970,539.010864 
	C280.277893,539.430237 277.375885,540.038635 274.196747,540.606873 
	C274.196747,538.813782 274.196747,537.341370 274.238190,535.407227 
z"/>
<path fill="#E7BE02" opacity="1.000000" stroke="none" 
	d="
M323.563568,709.460815 
	C328.448883,708.857056 332.897736,708.341492 337.098999,707.854675 
	C337.098999,720.862976 337.098999,733.598572 337.098999,745.973755 
	C309.393707,750.592468 282.556244,755.066528 255.201736,759.626709 
	C255.906403,750.910889 256.635925,741.881287 257.368530,732.851929 
	C257.395447,732.520325 257.455750,732.191589 257.494995,731.860901 
	C258.856873,720.386475 258.825287,720.204651 270.456360,718.193970 
	C287.987518,715.163330 305.567749,712.416504 323.563568,709.460815 
z"/>
<path fill="#E7BE02" opacity="1.000000" stroke="none" 
	d="
M472.061646,486.867676 
	C488.772491,489.366974 505.041168,491.777374 521.281982,494.362823 
	C522.401733,494.541077 524.106628,495.946289 524.202942,496.914062 
	C525.632202,511.266846 526.835388,525.642151 528.103394,540.141602 
	C504.511658,536.677063 481.423706,533.286499 457.902283,529.832336 
	C457.329803,515.255859 456.750885,500.514862 456.146851,485.135071 
	C461.545441,485.723450 466.579132,486.272034 472.061646,486.867676 
z"/>
<path fill="#E7BE02" opacity="1.000000" stroke="none" 
	d="
M470.648438,747.425293 
	C468.922180,747.170410 467.639771,746.994202 465.524231,746.703491 
	C465.524231,733.969116 465.524231,721.371948 465.524231,707.947876 
	C471.358673,708.626770 477.896942,709.104370 484.332550,710.190247 
	C502.842682,713.313477 521.322327,716.623535 539.775757,720.065063 
	C541.274719,720.344666 543.532410,722.073853 543.663147,723.316162 
	C544.930298,735.357849 545.818237,747.439453 546.798950,759.323059 
	C521.443604,755.364624 496.267944,751.434326 470.648438,747.425293 
z"/>
<path fill="#E7BF02" opacity="1.000000" stroke="none" 
	d="
M450.131897,653.886230 
	C467.414581,655.967468 484.253693,657.976440 501.070160,660.160034 
	C502.128204,660.297424 503.786743,661.740417 503.856720,662.674072 
	C505.036407,678.411133 506.007996,694.163757 507.042358,710.169922 
	C485.616577,707.563293 464.594147,705.005676 443.196899,702.402527 
	C443.196899,686.348877 443.196899,669.978271 443.196899,653.257935 
	C445.477142,653.467468 447.580139,653.660645 450.131897,653.886230 
z"/>
<path fill="#E7BF02" opacity="1.000000" stroke="none" 
	d="
M359.107117,700.753418 
	C358.308380,701.828491 357.574585,702.857117 356.725037,702.963745 
	C336.931732,705.449219 317.126038,707.836060 297.321625,710.232788 
	C296.702942,710.307678 296.073486,710.293945 294.947906,710.343628 
	C296.021484,693.733032 297.080109,677.353577 298.190521,660.173157 
	C318.371918,657.712219 338.428802,655.266479 359.118103,652.743652 
	C359.118103,669.066223 359.118103,684.671875 359.107117,700.753418 
z"/>
<path fill="#E7BE02" opacity="1.000000" stroke="none" 
	d="
M353.400543,291.229919 
	C352.932800,303.661285 352.494354,315.616547 352.053192,327.645569 
	C331.830505,330.258606 311.966583,332.825256 291.514984,335.467834 
	C292.485077,323.578186 293.382263,311.839600 294.432465,300.114746 
	C294.798248,296.031281 294.182037,290.654724 296.492493,288.286469 
	C298.845856,285.874298 304.226593,286.266266 308.320923,285.728699 
	C323.277374,283.765137 338.250183,281.925995 353.429810,280.013153 
	C353.429810,284.191895 353.429810,287.472839 353.400543,291.229919 
z"/>
<path fill="#E7BE02" opacity="1.000000" stroke="none" 
	d="
M473.590302,330.545349 
	C465.707947,329.661011 458.269165,328.856018 450.304565,327.994110 
	C449.735962,312.284210 449.173340,296.739227 448.580627,280.362762 
	C458.183502,281.342896 467.226471,282.116272 476.227844,283.226868 
	C485.144135,284.326935 494.040588,285.640350 502.889130,287.184540 
	C504.342102,287.438110 506.521576,289.263733 506.644043,290.529388 
	C508.055542,305.112122 509.137177,319.726837 510.285431,334.334717 
	C510.308533,334.628540 510.078613,334.942291 509.865234,335.523102 
	C497.959045,333.895416 485.996460,332.260040 473.590302,330.545349 
z"/>
<path fill="#E5BD02" opacity="1.000000" stroke="none" 
	d="
M377.115814,588.038940 
	C403.921967,587.053223 430.193542,587.598267 457.175659,590.450317 
	C457.926544,610.722534 458.674438,630.914734 459.439972,651.581970 
	C453.706451,651.140625 448.630096,650.749817 442.844543,650.304443 
	C442.844543,644.310059 442.941162,638.549438 442.826965,632.792969 
	C442.435944,613.081238 430.114532,596.831421 412.007874,592.029785 
	C385.371979,584.966125 359.968201,604.145325 359.175568,631.986877 
	C359.005737,637.951355 359.150757,643.924805 359.150757,650.261780 
	C353.611023,650.715881 348.533386,651.132080 342.978760,651.587341 
	C343.746277,631.152771 344.501160,611.053650 345.282104,590.261597 
	C355.831299,589.518738 366.230652,588.786377 377.115814,588.038940 
z"/>
<path fill="#E6BD02" opacity="1.000000" stroke="none" 
	d="
M323.694977,262.718475 
	C323.983948,257.931122 324.042297,253.586166 324.602417,249.306885 
	C324.756897,248.126617 326.326721,246.292923 327.383148,246.192642 
	C350.720215,243.977371 374.076294,241.961731 397.430359,239.927048 
	C397.896454,239.886429 398.382355,240.073074 399.216644,240.214157 
	C399.216644,251.753555 399.216644,263.265747 399.216644,274.614258 
	C373.829559,276.370728 348.654572,278.112549 322.674286,279.910095 
	C322.985291,274.599304 323.319489,268.892487 323.694977,262.718475 
z"/>
<path fill="#E6BD02" opacity="1.000000" stroke="none" 
	d="
M402.413635,263.999268 
	C402.413635,255.851547 402.413635,248.205078 402.413635,239.598801 
	C412.811920,240.156433 422.902557,240.377777 432.926544,241.313309 
	C446.498444,242.579971 460.027679,244.328796 473.549103,246.073013 
	C474.938812,246.252289 477.193726,247.716385 477.284210,248.740112 
	C478.202698,259.131226 478.754639,269.554749 479.406586,279.925903 
	C453.584991,278.134003 428.309784,276.380035 402.413666,274.582977 
	C402.413666,271.387238 402.413666,267.943848 402.413635,263.999268 
z"/>
<path fill="#E7BE02" opacity="1.000000" stroke="none" 
	d="
M348.710022,420.544312 
	C347.699188,421.982361 346.809052,423.715515 345.703857,423.865631 
	C325.113525,426.662048 304.497650,429.270111 283.319214,431.990723 
	C283.594849,427.914368 283.826965,423.535339 284.199005,419.168243 
	C285.089050,408.720978 285.960846,398.270294 287.077148,387.846375 
	C287.222229,386.491577 288.607758,384.331879 289.683136,384.155304 
	C305.582977,381.544769 321.527496,379.206696 337.844025,376.746368 
	C337.844025,389.662323 337.844025,401.953766 337.844025,414.791809 
	C341.505524,414.791809 344.894775,414.791809 348.730591,414.791809 
	C348.730591,416.920990 348.730591,418.511749 348.710022,420.544312 
z"/>
<path fill="#E6BD02" opacity="1.000000" stroke="none" 
	d="
M518.146240,424.805054 
	C518.398560,427.383698 518.616638,429.511566 518.888733,432.166565 
	C497.261200,429.205597 475.981140,426.292236 454.076447,423.293335 
	C453.961334,420.977173 453.826416,418.262665 453.668549,415.086060 
	C457.329803,415.086060 460.596985,415.086060 464.375275,415.086060 
	C464.375275,402.407379 464.375275,390.154297 464.375275,377.076721 
	C475.602051,378.565247 486.231659,379.919342 496.842682,381.405914 
	C501.777252,382.097229 506.728088,382.832153 511.557190,384.014404 
	C512.916931,384.347321 514.739685,386.244598 514.877075,387.576263 
	C516.139954,399.816559 517.078735,412.090240 518.146240,424.805054 
z"/>
<path fill="#E3BB02" opacity="1.000000" stroke="none" 
	d="
M440.614319,338.767303 
	C439.355438,342.015381 437.247345,345.202606 437.009399,348.523865 
	C436.465912,356.109070 436.837769,363.759857 436.837769,370.831635 
	C425.926025,370.831635 415.496399,370.912109 405.073181,370.690308 
	C404.165466,370.670990 402.546082,368.672363 402.530396,367.574890 
	C402.349701,354.932678 402.415161,342.286926 402.415161,328.969360 
	C429.465607,328.750061 456.019226,331.135223 482.935364,334.645721 
	C483.848267,348.641998 484.743530,362.368347 485.681458,376.748688 
	C479.024048,375.952820 472.654755,375.329498 466.357361,374.276215 
	C465.500763,374.132935 464.467987,371.854034 464.430420,370.537872 
	C464.235901,363.716919 464.487396,356.882629 464.267029,350.063232 
	C464.172363,347.132507 463.313049,344.226532 462.452423,341.110535 
	C462.103699,340.911743 462.233093,341.027557 462.181824,340.688782 
	C461.769867,340.160919 461.409180,339.971832 461.151123,339.909912 
	C461.253754,340.037079 461.508179,339.831940 461.416992,339.485107 
	C460.907990,339.009186 460.490143,338.880096 460.248108,338.847900 
	C460.423889,338.944824 460.618805,338.593842 460.494995,338.297150 
	C460.001404,337.817078 459.631653,337.633728 459.169861,337.563049 
	C459.077850,337.675720 459.304535,337.858093 459.309753,337.494751 
	C458.908142,336.943909 458.501343,336.756470 458.049438,336.700195 
	C458.004333,336.831360 458.267151,336.920105 458.234131,336.581299 
	C457.786377,336.100555 457.371643,335.958618 457.014862,335.893158 
	C457.072784,335.969604 457.225189,335.853149 456.971375,335.552551 
	C452.315796,333.392761 447.984100,332.926971 443.874786,335.906738 
	C443.924194,335.913116 443.934784,335.814026 443.639343,335.874451 
	C442.718231,336.430756 442.092499,336.926575 441.525757,337.550964 
	C441.584747,337.679504 441.840546,337.558807 441.490631,337.621552 
	C440.975922,338.094269 440.811127,338.504242 440.663025,338.872101 
	C440.679749,338.829987 440.614319,338.767303 440.614319,338.767303 
z"/>
<path fill="#E5BC02" opacity="1.000000" stroke="none" 
	d="
M340.687317,339.829315 
	C339.787018,342.933319 338.252441,346.008545 338.110046,349.146942 
	C337.741364,357.271118 337.986359,365.423096 337.986359,374.106598 
	C330.823578,374.997070 323.850342,375.863953 316.349060,376.796509 
	C317.252777,362.631683 318.127716,348.917999 319.091187,333.816772 
	C345.749908,331.871948 372.322937,329.933380 399.568909,327.945709 
	C399.568909,342.281952 399.633972,355.201660 399.431702,368.117218 
	C399.417236,369.040527 397.460297,370.698853 396.380249,370.720825 
	C386.419525,370.923218 376.453033,370.840210 365.722565,370.840210 
	C365.722565,364.587341 366.063873,357.473114 365.585968,350.414307 
	C365.327209,346.592834 363.670990,342.866028 362.271240,338.640625 
	C361.358185,337.777374 360.819092,337.369995 360.057251,336.655579 
	C352.000275,332.015747 345.796173,333.144562 340.708008,339.865845 
	C340.711975,339.902374 340.687317,339.829315 340.687317,339.829315 
z"/>
<path fill="#1C1B1C" opacity="1.000000" stroke="none" 
	d="
M462.157532,340.843628 
	C462.466125,362.728485 462.592682,384.684265 463.070953,406.632324 
	C463.182495,411.750885 461.464203,413.483429 456.467438,413.107788 
	C451.665466,412.746765 446.815979,412.984650 441.987793,413.017487 
	C439.283569,413.035889 438.044739,411.775482 438.049072,409.075043 
	C438.081360,388.928772 437.980774,368.781311 438.209686,348.637482 
	C438.244232,345.594482 439.772064,342.568451 440.611725,339.150940 
	C440.614319,338.767303 440.679749,338.829987 440.844635,338.632446 
	C441.286530,338.142883 441.563538,337.850861 441.840546,337.558807 
	C441.840546,337.558807 441.584747,337.679504 441.864136,337.578735 
	C442.740631,336.923279 443.337708,336.368652 443.934784,335.814026 
	C443.934784,335.814026 443.924194,335.913116 444.296021,335.923676 
	C448.853607,335.907196 453.039398,335.880188 457.225189,335.853149 
	C457.225189,335.853149 457.072784,335.969604 457.242462,336.066467 
	C457.697144,336.415588 457.982147,336.667847 458.267151,336.920105 
	C458.267151,336.920105 458.004333,336.831360 458.272827,336.890808 
	C458.795715,337.252869 459.050140,337.555481 459.304535,337.858093 
	C459.304535,337.858093 459.077850,337.675720 459.373230,337.782043 
	C459.985352,338.123535 460.302063,338.358704 460.618805,338.593842 
	C460.618805,338.593842 460.423889,338.944824 460.513916,338.994812 
	C460.905334,339.307190 461.206757,339.569580 461.508179,339.831940 
	C461.508179,339.831940 461.253754,340.037079 461.365326,340.096130 
	C461.728973,340.445953 461.981018,340.736755 462.233093,341.027557 
	C462.233093,341.027557 462.103699,340.911743 462.157532,340.843628 
z"/>
<path fill="#1B1A1C" opacity="1.000000" stroke="none" 
	d="
M360.279999,336.962616 
	C360.819092,337.369995 361.358185,337.777374 361.968079,338.432129 
	C366.165924,358.939331 363.249969,379.425323 363.920532,399.796478 
	C364.355621,413.014740 364.002319,413.062958 350.855835,413.015533 
	C338.650635,412.971527 340.019165,414.300140 339.981140,402.013458 
	C339.930695,385.707855 339.916229,369.401672 340.005280,353.096405 
	C340.027863,348.957703 340.500854,344.821472 340.727112,340.256714 
	C340.687317,339.829315 340.711975,339.902374 341.072693,339.835480 
	C347.152435,335.050568 353.483704,334.444855 360.279999,336.962616 
z"/>
<path fill="#E6BD02" opacity="1.000000" stroke="none" 
	d="
M272.883606,552.938354 
	C273.369843,543.756836 273.359406,543.699280 281.686157,542.187561 
	C288.540314,540.943176 295.423096,539.856445 302.810974,538.612732 
	C302.810974,540.456482 302.889008,541.896667 302.798920,543.326233 
	C301.837006,558.591370 300.758942,573.850037 299.937927,589.122559 
	C299.760406,592.425354 298.652405,593.616577 295.329376,594.094971 
	C286.653564,595.343811 278.049957,597.093994 268.869354,598.742798 
	C270.210999,583.467102 271.531555,568.431274 272.883606,552.938354 
z"/>
<path fill="#E6BD02" opacity="1.000000" stroke="none" 
	d="
M530.420776,567.663086 
	C531.338623,578.192871 532.193420,588.264954 533.073914,598.640259 
	C523.503784,596.971436 514.385071,595.476257 505.324677,593.685974 
	C504.139160,593.451782 502.431946,591.762451 502.351105,590.646790 
	C501.116211,573.596069 500.111725,556.528625 498.994293,538.510254 
	C508.464325,540.187378 517.528381,541.663208 526.503601,543.559387 
	C527.530823,543.776367 528.562195,546.289001 528.734741,547.832947 
	C529.454102,554.270508 529.845825,560.744690 530.420776,567.663086 
z"/>
<path fill="#E6BE02" opacity="1.000000" stroke="none" 
	d="
M259.118378,712.265503 
	C260.454407,697.052551 261.760620,682.301331 263.109711,667.066406 
	C273.600494,665.053345 284.002106,663.057434 295.174377,660.913635 
	C294.083557,677.913147 293.023285,694.436401 291.953308,711.111145 
	C280.883240,713.252563 270.152161,715.328369 259.088593,717.468506 
	C259.088593,715.664917 259.088593,714.196106 259.118378,712.265503 
z"/>
<path fill="#E6BE02" opacity="1.000000" stroke="none" 
	d="
M517.546021,712.521667 
	C514.857666,711.981262 512.585754,711.549072 510.050995,711.066833 
	C508.972870,694.461304 507.907288,678.048889 506.795197,660.920044 
	C517.751770,662.992737 528.121704,664.954468 538.900024,666.993469 
	C540.341614,683.656189 541.771484,700.182922 543.266052,717.458008 
	C534.429626,715.771912 526.196045,714.200928 517.546021,712.521667 
z"/>
<path fill="#E5BD02" opacity="1.000000" stroke="none" 
	d="
M278.616882,485.501465 
	C279.918060,470.159760 281.237640,455.263031 282.347137,440.350647 
	C282.611938,436.791168 283.805847,435.245026 287.603455,434.822021 
	C294.841644,434.015808 302.001709,432.507782 309.371857,431.261047 
	C309.571106,432.187256 309.850830,432.809387 309.813263,433.411774 
	C308.778412,449.997955 307.635773,466.577972 306.716034,483.170349 
	C306.541443,486.319489 305.190094,487.412445 302.309998,487.836243 
	C294.435120,488.995087 286.590088,490.356842 278.085175,491.743927 
	C278.248962,489.734711 278.403595,487.837708 278.616882,485.501465 
z"/>
<path fill="#E5BD02" opacity="1.000000" stroke="none" 
	d="
M494.105499,463.740540 
	C493.445496,452.836090 492.807068,442.401031 492.122620,431.213776 
	C500.714172,432.617401 508.870209,433.782227 516.920532,435.455505 
	C518.058228,435.691986 519.285828,438.348480 519.445984,439.985168 
	C520.758362,453.401093 521.828735,466.840698 522.970093,480.273315 
	C523.278198,483.898804 523.577881,487.525024 523.931580,491.749207 
	C514.332520,490.106964 505.130798,488.532715 495.696960,486.918762 
	C495.157135,479.110199 494.642120,471.660065 494.105499,463.740540 
z"/>
<path fill="#E5BD02" opacity="1.000000" stroke="none" 
	d="
M511.316681,344.789337 
	C512.380615,356.960052 513.392029,368.684540 514.473999,381.226624 
	C505.953125,379.902069 498.009674,378.729309 490.106140,377.330719 
	C489.411316,377.207764 488.553650,375.635712 488.487457,374.686829 
	C487.576508,361.626526 486.791260,348.557434 485.944580,335.000519 
	C494.458405,336.317780 502.436096,337.552094 510.770264,338.841553 
	C510.945892,340.798035 511.105011,342.570587 511.316681,344.789337 
z"/>
<path fill="#E5BD02" opacity="1.000000" stroke="none" 
	d="
M290.967926,341.249573 
	C292.197327,339.980530 293.306061,338.648438 294.614899,338.408691 
	C301.465912,337.153809 308.367645,336.175934 315.983643,334.987518 
	C315.555054,342.638275 315.160492,350.002045 314.724243,357.363312 
	C314.399872,362.836761 314.152771,368.320923 313.573151,373.768616 
	C313.431122,375.103455 312.299805,377.248749 311.322632,377.433807 
	C303.699554,378.877716 296.003052,379.933807 287.537354,381.231018 
	C288.700623,367.711395 289.820099,354.700928 290.967926,341.249573 
z"/>
<path fill="#E4BC02" opacity="1.000000" stroke="none" 
	d="
M481.774353,269.223083 
	C481.263489,261.675598 480.785645,254.596558 480.267822,246.924820 
	C487.582611,248.030731 494.424500,248.998444 501.229370,250.179535 
	C502.066559,250.324875 503.270599,251.554459 503.351379,252.375397 
	C504.387909,262.906921 505.250854,273.455536 506.205444,284.553711 
	C497.900330,283.314453 490.270386,282.175964 482.415863,281.003937 
	C482.198029,276.953796 482.002686,273.322693 481.774353,269.223083 
z"/>
<path fill="#E4BC02" opacity="1.000000" stroke="none" 
	d="
M316.350952,281.566193 
	C309.518127,282.567780 303.109222,283.480652 295.896545,284.508026 
	C296.268066,279.831146 296.615295,275.468048 296.961090,271.104858 
	C297.407562,265.471649 297.701752,259.819458 298.401733,254.217972 
	C298.583923,252.760010 299.830505,250.472076 300.929352,250.249481 
	C307.576355,248.902969 314.322296,248.045013 321.646973,246.930649 
	C321.058533,256.819519 320.490631,266.359650 319.923431,275.899780 
	C319.864227,276.895569 320.143158,278.106598 319.673187,278.836609 
	C318.989410,279.898651 317.767426,280.614166 316.350952,281.566193 
z"/>
<path fill="#E6BE02" opacity="1.000000" stroke="none" 
	d="
M461.540527,708.710327 
	C461.658234,721.428345 461.658234,733.709839 461.658234,746.356262 
	C456.110718,745.874390 449.730438,745.320129 443.114258,744.745422 
	C443.114258,731.851318 443.114258,719.255432 443.114258,705.486877 
	C449.308868,706.429871 455.365875,707.351868 461.540527,708.710327 
z"/>
<path fill="#E7BE02" opacity="1.000000" stroke="none" 
	d="
M343.826660,746.064148 
	C341.233643,746.371582 339.445221,746.596619 339.596558,743.353271 
	C340.145935,731.580811 340.492645,719.798950 340.936310,707.450684 
	C346.962952,706.901489 352.778839,706.371521 358.886597,705.814941 
	C358.886597,718.973206 358.886597,731.550049 358.886597,744.664734 
	C354.093903,745.115051 349.199463,745.574890 343.826660,746.064148 
z"/>
<path fill="#0D0C02" opacity="1.000000" stroke="none" 
	d="
M456.971375,335.552551 
	C453.039398,335.880188 448.853607,335.907196 444.246582,335.917297 
	C447.984100,332.926971 452.315796,333.392761 456.971375,335.552551 
z"/>
<path fill="#0D0C02" opacity="1.000000" stroke="none" 
	d="
M443.639343,335.874451 
	C443.337708,336.368652 442.740631,336.923279 441.805176,337.450195 
	C442.092499,336.926575 442.718231,336.430756 443.639343,335.874451 
z"/>
<path fill="#0D0C02" opacity="1.000000" stroke="none" 
	d="
M462.181824,340.688782 
	C461.981018,340.736755 461.728973,340.445953 461.262695,339.968964 
	C461.409180,339.971832 461.769867,340.160919 462.181824,340.688782 
z"/>
<path fill="#0D0C02" opacity="1.000000" stroke="none" 
	d="
M461.416992,339.485107 
	C461.206757,339.569580 460.905334,339.307190 460.338104,338.897919 
	C460.490143,338.880096 460.907990,339.009186 461.416992,339.485107 
z"/>
<path fill="#0D0C02" opacity="1.000000" stroke="none" 
	d="
M460.494995,338.297150 
	C460.302063,338.358704 459.985352,338.123535 459.465271,337.669373 
	C459.631653,337.633728 460.001404,337.817078 460.494995,338.297150 
z"/>
<path fill="#0D0C02" opacity="1.000000" stroke="none" 
	d="
M441.490631,337.621552 
	C441.563538,337.850861 441.286530,338.142883 440.827911,338.674561 
	C440.811127,338.504242 440.975922,338.094269 441.490631,337.621552 
z"/>
<path fill="#0D0C02" opacity="1.000000" stroke="none" 
	d="
M459.309753,337.494751 
	C459.050140,337.555481 458.795715,337.252869 458.317902,336.759644 
	C458.501343,336.756470 458.908142,336.943909 459.309753,337.494751 
z"/>
<path fill="#0D0C02" opacity="1.000000" stroke="none" 
	d="
M458.234131,336.581299 
	C457.982147,336.667847 457.697144,336.415588 457.184540,335.990021 
	C457.371643,335.958618 457.786377,336.100555 458.234131,336.581299 
z"/>
<path fill="#0D0C02" opacity="1.000000" stroke="none" 
	d="
M360.057251,336.655579 
	C353.483704,334.444855 347.152435,335.050568 341.068726,339.798950 
	C345.796173,333.144562 352.000275,332.015747 360.057251,336.655579 
z"/>
</svg>